<svg xmlns="http://www.w3.org/2000/svg" viewBox="0 0 512 512">
  <rect width="512" height="512" rx="104" fill="#2f7f61"/>
  <path fill="#ffffff" d="M158 90h196c25 0 45 20 45 45v242c0 25-20 45-45 45H158c-25 0-45-20-45-45V135c0-25 20-45 45-45Zm0 38c-4 0-7 3-7 7v82h210v-82c0-4-3-7-7-7H158Zm-7 127v122c0 4 3 7 7 7h196c4 0 7-3 7-7V255H151Zm42-91c0-11 9-20 20-20h86c11 0 20 9 20 20s-9 20-20 20h-86c-11 0-20-9-20-20Zm48 136c0-11 9-20 20-20h60c11 0 20 9 20 20s-9 20-20 20h-60c-11 0-20-9-20-20Z"/>
  <circle cx="186" cy="300" r="22" fill="#dff2e7"/>
</svg>
